<?xml version="1.0" standalone="no"?>
<!DOCTYPE svg PUBLIC "-//W3C//DTD SVG 1.1//EN" "http://www.w3.org/Graphics/SVG/1.1/DTD/svg11.dtd" >
<svg xmlns="http://www.w3.org/2000/svg">
<metadata>
This is a custom SVG webfont generated by Font Squirrel.
Copyright   : Copyright c 20082011 by Silas Dilworth All rights reserved
Designer    : Silas Dilworth
Foundry     : Silas Dilworth
Foundry URL : httptypetrustcom
</metadata>
<defs>
<font id="HeroicCondensedWebBold" horiz-adv-x="715" >
<font-face units-per-em="2048" ascent="1638" descent="-410" />
<missing-glyph horiz-adv-x="344" />
<glyph horiz-adv-x="0" />
<glyph horiz-adv-x="0" />
<glyph unicode="&#xd;" horiz-adv-x="0" />
<glyph unicode=" "  horiz-adv-x="344" />
<glyph unicode="&#x09;" horiz-adv-x="344" />
<glyph unicode="&#xa0;" horiz-adv-x="344" />
<glyph unicode="!" horiz-adv-x="410" d="M92 1434h225l-47 -973h-131zM113 0v207h184v-207h-184z" />
<glyph unicode="&#x22;" horiz-adv-x="578" d="M82 1454h176l-33 -461h-110zM319 1454h177l-33 -461h-111z" />
<glyph unicode="#" horiz-adv-x="737" d="M61 377v108h117l25 463h-111v109h117l18 377h115l-18 -377h127l18 377h115l-19 -377h111v-109h-117l-24 -463h110v-108h-117l-18 -377h-115l19 377h-127l-19 -377h-114l18 377h-111zM293 485h127l24 463h-127z" />
<glyph unicode="$" horiz-adv-x="686" d="M102 342v168h177v-170q0 -80 65 -80q64 0 64 80v121q0 53 -22.5 101.5t-56.5 84t-74 79t-74 86t-56.5 106t-22.5 137.5v59q0 210 187 236v145h114v-145q98 -14 139.5 -74t41.5 -164v-125h-176v129q0 82 -64 82q-65 0 -65 -82v-63q0 -44 17 -85t43.5 -74.5t59 -67 t65.5 -70.5t59.5 -77.5t43.5 -94.5t17 -115v-127q0 -102 -41.5 -161.5t-139.5 -74.5v-167h-114v167q-102 12 -144.5 71.5t-42.5 164.5z" />
<glyph unicode="%" horiz-adv-x="930" d="M94 1065v199q0 98 38.5 145t131.5 47t131.5 -47t38.5 -145v-199q0 -98 -38.5 -144.5t-131.5 -46.5t-131.5 46.5t-38.5 144.5zM109 0l593 1434h121l-594 -1434h-120zM215 1063q0 -40 10.5 -57t38.5 -17t38.5 17t10.5 57v203q0 40 -10.5 57.5t-38.5 17.5t-38.5 -17.5 t-10.5 -57.5v-203zM498 170v199q0 98 38 144t132 46t132 -46t38 -144v-199q0 -98 -38.5 -145.5t-131.5 -47.5t-131.5 47.5t-38.5 145.5zM618 168q0 -40 11 -58t39 -18t38.5 18t10.5 58v203q0 40 -10.5 56.5t-38.5 16.5t-39 -17t-11 -56v-203z" />
<glyph unicode="&#x26;" horiz-adv-x="811" d="M117 229v314q0 131 96 184q-92 49 -92 184v287q0 60 12 104t40 79.5t80.5 54t127.5 18.5q142 0 200 -66.5t58 -189.5v-174h-186v174q0 84 -72 84q-74 0 -74 -84v-309q0 -76 70 -76h356v-176h-92v-377q0 -80 90 -80v-180q-123 0 -178 55q-51 -73 -178 -73 q-137 0 -197.5 63t-60.5 184zM307 240q0 -88 72 -88t72 86v399h-74q-44 0 -57 -25t-13 -73v-299z" />
<glyph unicode="'" horiz-adv-x="340" d="M82 1454h176l-33 -461h-110z" />
<glyph unicode="(" horiz-adv-x="530" d="M102 621q0 437 209 874h140q-193 -461 -193 -874q0 -410 193 -867h-140q-209 432 -209 867z" />
<glyph unicode=")" horiz-adv-x="530" d="M102 -246q193 457 193 867q0 413 -193 874h140q209 -437 209 -874q0 -435 -209 -867h-140z" />
<glyph unicode="*" horiz-adv-x="762" d="M82 1174l51 161l225 -139l-63 258h172l-64 -258l226 139l51 -161l-264 -21l202 -170l-139 -100l-98 243l-98 -243l-140 100l203 170z" />
<glyph unicode="+" horiz-adv-x="799" d="M102 506v135h230v229h135v-229h229v-135h-229v-230h-135v230h-230z" />
<glyph unicode="," horiz-adv-x="340" d="M82 -180v387h186l-65 -387h-121z" />
<glyph unicode="-" horiz-adv-x="512" d="M82 506v135h348v-135h-348z" />
<glyph unicode="." horiz-adv-x="348" d="M82 0v207h184v-207h-184z" />
<glyph unicode="/" horiz-adv-x="590" d="M25 -246l364 1741h139l-364 -1741h-139z" />
<glyph unicode="0" horiz-adv-x="702" d="M86 236v962q0 121 60 188.5t206 67.5t205 -67t59 -189v-962q0 -123 -59 -189.5t-205 -66.5t-206 66.5t-60 189.5zM276 236q0 -86 76 -86q74 0 74 86v962q0 84 -74 84q-76 0 -76 -84v-962z" />
<glyph unicode="1" horiz-adv-x="563" d="M61 0v180h125v987h-120v133q87 0 120 32.5t33 101.5h158v-1254h125v-180h-441z" />
<glyph unicode="2" horiz-adv-x="674" d="M84 1014v190q0 120 57.5 185t200.5 65q144 0 204 -65.5t60 -184.5v-162q0 -88 -18 -160.5t-47.5 -122t-64.5 -93.5t-70 -87t-64.5 -90.5t-47.5 -115t-18 -150.5v-43h336v-180h-526v205q0 103 18 187.5t47.5 140.5t64.5 103.5t70 89t64.5 84t47.5 100.5t18 128v166 q0 35 -18.5 56.5t-55.5 21.5q-72 0 -72 -78v-190h-186z" />
<glyph unicode="3" horiz-adv-x="690" d="M82 233v207h186v-204q0 -86 74 -86q39 0 55.5 21.5t16.5 64.5v329q0 72 -66 72h-82v176h82q64 0 64 70v321q0 78 -70 78q-72 0 -72 -78v-190h-186v190q0 120 57.5 185t200.5 65t199.5 -65t56.5 -185v-303q0 -127 -98 -174q104 -48 104 -172v-322q0 -121 -58 -187 t-204 -66q-145 0 -202.5 65.5t-57.5 187.5z" />
<glyph unicode="4" horiz-adv-x="670" d="M45 322v202l217 910h277v-938h90v-174h-90v-322h-181v322h-313zM203 496h155v477q0 90 4 270h-2z" />
<glyph unicode="5" horiz-adv-x="688" d="M78 233v207h188v-204q0 -86 74 -86q76 0 76 86v434q0 69 -70 69q-63 0 -100 -51h-154l41 746h463v-183h-297l-20 -385q47 31 112 31q114 0 164.5 -55t50.5 -176v-433q0 -120 -60 -186.5t-206 -66.5t-204 66t-58 187z" />
<glyph unicode="6" horiz-adv-x="702" d="M86 236v962q0 256 264 256t264 -256v-164h-188v164q0 84 -74 84q-76 0 -76 -84v-367q53 39 125 39q215 0 215 -237v-397q0 -256 -266 -256q-140 0 -202 66.5t-62 189.5zM276 258q0 -34 4 -54.5t21 -37t49 -16.5q46 0 61 28t15 80v375q0 34 -20.5 57t-55.5 23 q-36 0 -55 -22t-19 -58v-375z" />
<glyph unicode="7" horiz-adv-x="573" d="M41 1251v183h491v-150q-100 -360 -127.5 -587.5t-27.5 -696.5h-209q0 360 41.5 661t140.5 590h-309z" />
<glyph unicode="8" horiz-adv-x="702" d="M86 233v322q0 122 107 172q-99 47 -99 174v303q0 120 58 185t200 65q143 0 200.5 -65t57.5 -185v-303q0 -127 -100 -174q106 -48 106 -172v-322q0 -121 -59 -187t-205 -66t-206 66.5t-60 186.5zM276 233q0 -83 76 -83q74 0 74 83v328q0 84 -74 84q-76 0 -76 -84v-328z M281 883q0 -78 71 -78q72 0 72 78v321q0 78 -72 78q-71 0 -71 -78v-321z" />
<glyph unicode="9" horiz-adv-x="702" d="M86 236v184h190v-187q0 -83 74 -83q76 0 76 83v408q-48 -39 -125 -39q-215 0 -215 236v358q0 258 266 258q140 0 202 -67t62 -191v-960q0 -124 -62 -190t-202 -66q-266 0 -266 256zM276 840q0 -35 20 -57.5t56 -22.5t55 21.5t19 56.5v338q0 53 -15 79.5t-59 26.5 q-45 0 -60.5 -27t-15.5 -79v-336z" />
<glyph unicode=":" horiz-adv-x="369" d="M92 0v207h184v-207h-184zM92 621v206h184v-206h-184z" />
<glyph unicode=";" horiz-adv-x="377" d="M92 -180v387h187l-66 -387h-121zM92 621v206h184v-206h-184z" />
<glyph unicode="&#x3c;" horiz-adv-x="631" d="M102 506v135l426 229v-147l-301 -150l301 -149v-148z" />
<glyph unicode="=" horiz-adv-x="737" d="M102 350v135h533v-135h-533zM102 662v135h533v-135h-533z" />
<glyph unicode="&#x3e;" horiz-adv-x="631" d="M102 276v148l301 149l-301 150v147l426 -229v-135z" />
<glyph unicode="?" horiz-adv-x="676" d="M82 1055v143q0 123 58 189.5t196 66.5t198 -67t60 -189v-129q0 -71 -9.5 -122.5t-25 -82t-34.5 -55t-39 -51.5t-37.5 -61.5t-30.5 -94.5t-17 -141h-129q-8 68 -8 131q0 82 14.5 140t35 90.5t40.5 62t34.5 74t14.5 106.5v133q0 41 -14.5 62.5t-52.5 21.5q-68 0 -68 -84 v-143h-186zM246 0v207h184v-207h-184z" />
<glyph unicode="@" horiz-adv-x="1073" d="M96 254v514q0 85 13 155t44.5 131.5t81 103.5t126 66.5t176.5 24.5q123 0 210 -36t136 -103.5t70.5 -151t21.5 -190.5v-514q0 -84 -12.5 -152.5t-43 -130.5t-79.5 -104.5t-125.5 -67t-177.5 -24.5t-178.5 24.5t-126.5 67t-80 104.5t-43.5 130.5t-12.5 152.5zM221 254 q0 -80 13.5 -140.5t46.5 -112.5t97.5 -79.5t158.5 -27.5q75 0 131.5 19t91 50.5t55.5 79t29 98t8 113.5v514q0 63 -7.5 113.5t-28.5 98.5t-55.5 80t-91 51t-132.5 19q-77 0 -134 -19t-91 -51t-55 -80t-28.5 -98t-7.5 -114v-514zM344 258v152q0 99 48.5 149.5t193.5 93.5v115 q0 61 -51 61q-52 0 -52 -61v-55h-131v57q0 89 41 135.5t142 46.5q104 0 144 -46.5t40 -137.5v-670h-86l-27 35q-35 -55 -106 -55q-84 0 -120 44.5t-36 135.5zM477 281q0 -84 55 -84q54 0 54 63v289q-60 -23 -84.5 -55t-24.5 -84v-129z" />
<glyph unicode="A" horiz-adv-x="659" d="M31 0l174 1434h250l174 -1434h-185l-28 291h-172l-29 -291h-184zM258 471h143l-30 317q-22 226 -39 439h-4q-6 -68 -13 -149.5t-15 -167t-11 -122.5z" />
<glyph unicode="B" horiz-adv-x="717" d="M102 0v1434h279q74 0 122.5 -14t75.5 -44t37.5 -69.5t10.5 -98.5v-307q0 -127 -90 -174q98 -47 98 -178v-305q0 -122 -51.5 -183t-190.5 -61h-291zM293 180h86q36 0 50.5 16.5t14.5 51.5v313q0 38 -15.5 57t-53.5 19h-82v-457zM293 813h80q41 0 54 24.5t13 77.5v244 q0 51 -12.5 71.5t-52.5 20.5h-82v-438z" />
<glyph unicode="C" horiz-adv-x="690" d="M88 236v960q0 123 60 190.5t206 67.5q142 0 200 -67.5t58 -190.5v-223h-184v223q0 86 -74 86q-75 0 -75 -86v-958q0 -88 75 -88q74 0 74 88v243h184v-245q0 -59 -12.5 -103t-41 -80t-80 -54.5t-124.5 -18.5q-146 0 -206 67.5t-60 188.5z" />
<glyph unicode="D" horiz-adv-x="723" d="M102 0v1434h279q144 0 199 -63t55 -189v-930q0 -129 -53.5 -190.5t-196.5 -61.5h-283zM293 180h84q37 0 52 17.5t15 52.5v930q0 37 -15.5 54t-53.5 17h-82v-1071z" />
<glyph unicode="E" horiz-adv-x="610" d="M102 0v1434h437v-183h-246v-438h213v-176h-213v-457h246v-180h-437z" />
<glyph unicode="F" horiz-adv-x="580" d="M102 0v1434h426v-183h-235v-438h203v-176h-203v-637h-191z" />
<glyph unicode="G" horiz-adv-x="707" d="M88 236v960q0 123 59 190.5t205 67.5q144 0 203 -67.5t59 -190.5v-223h-186v225q0 84 -76 84q-73 0 -73 -84v-960q0 -88 73 -88q76 0 76 88v399h-76v176h266v-577q0 -121 -60 -188.5t-206 -67.5t-205 67t-59 189z" />
<glyph unicode="H" horiz-adv-x="739" d="M102 0v1434h191v-621h153v621h191v-1434h-191v637h-153v-637h-191z" />
<glyph unicode="I" horiz-adv-x="395" d="M102 0v1434h191v-1434h-191z" />
<glyph unicode="J" horiz-adv-x="659" d="M51 233v248h185v-245q0 -43 15 -64.5t52 -21.5q38 0 53 21.5t15 64.5v1198h190v-1201q0 -121 -57.5 -187t-198.5 -66q-139 0 -196.5 65t-57.5 188z" />
<glyph unicode="K" horiz-adv-x="690" d="M102 0v1434h185v-660l172 660h198l-208 -711l221 -723h-197l-186 674v-674h-185z" />
<glyph unicode="L" horiz-adv-x="530" d="M102 0v1434h191v-1254h196v-180h-387z" />
<glyph unicode="M" horiz-adv-x="995" d="M102 0v1434h244l152 -1049l151 1049h244v-1434h-172v377q0 94 2 192t4 156.5t7 183.5t7 183h-4l-168 -1092h-143l-168 1092h-4q2 -58 7 -183t7 -183.5t4 -156.5t2 -192v-377h-172z" />
<glyph unicode="N" horiz-adv-x="774" d="M102 0v1434h187l227 -975h4q-20 287 -20 520v455h172v-1434h-187l-227 977h-4q20 -336 20 -524v-453h-172z" />
<glyph unicode="O" horiz-adv-x="707" d="M88 236v960q0 121 60 189.5t206 68.5q145 0 204.5 -68t59.5 -190v-960q0 -122 -59 -189t-205 -67t-206 67.5t-60 188.5zM279 238q0 -88 75 -88q74 0 74 88v958q0 86 -74 86q-75 0 -75 -86v-958z" />
<glyph unicode="P" horiz-adv-x="692" d="M102 0v1434h285q139 0 191.5 -62.5t52.5 -183.5v-373q0 -120 -58 -182t-190 -62h-90v-571h-191zM293 748h82q37 0 52 17t15 54v361q0 37 -15.5 54t-53.5 17h-80v-503z" />
<glyph unicode="Q" horiz-adv-x="707" d="M88 236v960q0 123 60 190.5t206 67.5t205 -67.5t59 -190.5v-960q0 -224 -192 -250q3 -34 21.5 -49t56.5 -15h63l-28 -115h-41q-111 0 -162.5 44t-56.5 135q-105 16 -148 80t-43 170zM279 238q0 -88 75 -88q74 0 74 88v958q0 86 -74 86q-75 0 -75 -86v-958z" />
<glyph unicode="R" horiz-adv-x="721" d="M102 0v1434h287q72 0 120.5 -17t74.5 -51.5t36.5 -76.5t10.5 -101v-359q0 -97 -28.5 -153t-102.5 -78l190 -598h-196l-172 590h-29v-590h-191zM293 764h82q37 0 52 17.5t15 54.5v344q0 37 -15.5 54t-53.5 17h-80v-487z" />
<glyph unicode="S" horiz-adv-x="684" d="M78 236v215h190v-213q0 -86 74 -86t74 86v145q0 76 -18.5 133t-48.5 92.5t-66 65.5t-72 63t-66 73.5t-48.5 107.5t-18.5 155v125q0 120 61 188t203 68t203 -68t61 -188v-194h-190v194q0 84 -74 84t-74 -84v-119q0 -65 18.5 -114t48.5 -81t66 -61.5t72 -65.5t66 -81 t48.5 -119t18.5 -170v-151q0 -120 -61 -188t-203 -68t-203 68t-61 188z" />
<glyph unicode="T" horiz-adv-x="586" d="M37 1251v183h512v-183h-162v-1251h-190v1251h-160z" />
<glyph unicode="U" d="M92 233v1201h191v-1198q0 -86 75 -86q40 0 57 21.5t17 64.5v1198h191v-1201q0 -253 -265 -253q-145 0 -205.5 66.5t-60.5 186.5z" />
<glyph unicode="V" horiz-adv-x="676" d="M41 1434h195l55 -592q8 -86 23.5 -268t23.5 -277q5 62 47 545l53 592h197l-184 -1434h-228z" />
<glyph unicode="W" horiz-adv-x="1126" d="M61 1434h193l53 -691q20 -248 31 -456h4q16 192 45 456l76 691h201l75 -691q18 -160 45 -456h4q5 67 15 220t16 238l53 689h193l-162 -1434h-229l-82 811q-15 145 -27 334h-4q-12 -207 -26 -336l-82 -809h-230z" />
<glyph unicode="X" horiz-adv-x="672" d="M31 0l202 743l-188 691h205l86 -490l86 490h205l-191 -691l205 -743h-205l-100 545l-100 -545h-205z" />
<glyph unicode="Y" horiz-adv-x="625" d="M31 1434h200l80 -605l82 605h201l-186 -881v-553h-191v553z" />
<glyph unicode="Z" horiz-adv-x="618" d="M78 1251v183h465v-131l-258 -1123h268v-180h-471v131l258 1120h-262z" />
<glyph unicode="[" horiz-adv-x="545" d="M143 -246v1741h299v-135h-143v-1471h143v-135h-299z" />
<glyph unicode="\" horiz-adv-x="590" d="M61 1495h140l364 -1741h-139z" />
<glyph unicode="]" horiz-adv-x="545" d="M102 -111h146v1471h-146v135h299v-1741h-299v135z" />
<glyph unicode="^" horiz-adv-x="483" d="M82 1034l102 410h115l102 -410h-112l-47 254l-45 -254h-115z" />
<glyph unicode="_" horiz-adv-x="717" d="M82 0v143h553v-143h-553z" />
<glyph unicode="`" horiz-adv-x="410" d="M111 1372h161l43 -246h-104z" />
<glyph unicode="a" horiz-adv-x="641" d="M66 219v148q0 110 70.5 175.5t242.5 125.5v141q0 80 -64 80q-61 0 -61 -82v-76h-174v80q0 111 54.5 172t180.5 61q132 0 188 -62t56 -173v-809h-104l-35 51q-24 -37 -58.5 -54t-91.5 -17q-106 0 -155 59t-49 180zM246 246q0 -25 1 -39t6.5 -33.5t20 -29t37.5 -9.5 q39 0 53.5 21t14.5 63v313q-75 -34 -104 -67.5t-29 -95.5v-123z" />
<glyph unicode="b" horiz-adv-x="662" d="M86 0v1454h180v-461q20 23 53 37t66 14q107 0 151 -56.5t44 -180.5v-588q0 -123 -46.5 -181t-152.5 -58q-110 0 -154 71l-37 -51h-104zM266 215q0 -80 68 -80q65 0 65 80v592q0 82 -65 82q-68 0 -68 -80v-594z" />
<glyph unicode="c" horiz-adv-x="649" d="M82 219v586q0 116 56 177.5t192 61.5q133 0 187 -61.5t54 -177.5v-123h-176v125q0 82 -65 82q-68 0 -68 -82v-592q0 -80 68 -80q65 0 65 80v147h176v-143q0 -117 -53.5 -178t-187.5 -61q-137 0 -192.5 61.5t-55.5 177.5z" />
<glyph unicode="d" horiz-adv-x="662" d="M82 217v592q0 124 43 179.5t149 55.5q33 0 67.5 -14t53.5 -37v461h180v-1454h-104l-37 51q-42 -71 -155 -71q-106 0 -151.5 56.5t-45.5 180.5zM262 215q0 -80 66 -80q67 0 67 80v594q0 80 -67 80q-66 0 -66 -82v-592z" />
<glyph unicode="e" horiz-adv-x="651" d="M82 221v582q0 115 57.5 178t190.5 63q131 0 185 -62.5t54 -178.5v-314h-307v-274q0 -80 68 -80q65 0 65 80v137h174v-131q0 -117 -53 -179t-186 -62q-134 0 -191 63t-57 178zM262 625h133v182q0 82 -65 82q-68 0 -68 -82v-182z" />
<glyph unicode="f" horiz-adv-x="471" d="M31 864v160h92v207q0 124 54.5 184t193.5 60q37 0 88 -15v-157q-37 16 -82 16q-40 0 -57 -22t-17 -66v-207h133v-160h-133v-864h-180v864h-92z" />
<glyph unicode="g" horiz-adv-x="645" d="M51 -109q0 143 111 199q-53 29 -53 80q0 57 59 84q-98 50 -98 209v340q0 116 55 178.5t190 62.5q55 0 99 -12q42 96 147 96q35 0 60 -8v-127q-32 11 -68 11q-25 0 -55 -17q65 -62 65 -184v-340q0 -116 -56 -177t-192 -61q-71 0 -71 -53t67 -53q148 0 210.5 -58t62.5 -170 v-10q0 -103 -63.5 -166t-203.5 -63q-139 0 -202.5 61.5t-63.5 167.5v10zM225 -88v-8q0 -94 92 -94q93 0 93 94v8q0 90 -93 90q-92 0 -92 -90zM250 471q0 -60 13.5 -84.5t51.5 -24.5t53 24.5t15 84.5v309q0 58 -15 83.5t-53 25.5t-51.5 -24.5t-13.5 -84.5v-309z" />
<glyph unicode="h" horiz-adv-x="666" d="M86 0v1454h180v-461q20 23 52.5 37t66.5 14q107 0 151 -56.5t44 -180.5v-807h-181v807q0 82 -67 82q-66 0 -66 -80v-809h-180z" />
<glyph unicode="i" horiz-adv-x="352" d="M86 0v1024h180v-1024h-180zM86 1153v207h180v-207h-180z" />
<glyph unicode="j" horiz-adv-x="352" d="M-70 -176q39 -17 80 -17t58.5 22t17.5 67v1128h180v-1128q0 -124 -55 -184t-193 -60q-41 0 -88 14v158zM86 1153v207h180v-207h-180z" />
<glyph unicode="k" horiz-adv-x="627" d="M86 0v1454h180v-872l137 442h193l-176 -496l196 -528h-194l-156 465v-465h-180z" />
<glyph unicode="l" horiz-adv-x="352" d="M86 0v1454h180v-1454h-180z" />
<glyph unicode="m" horiz-adv-x="975" d="M86 0v1024h102l37 -53q55 73 160 73q104 0 152 -67q55 67 157 67q105 0 150 -57t45 -176v-811h-180v809q0 80 -64 80q-67 0 -67 -80v-809h-181v809q0 80 -63 80q-68 0 -68 -80v-809h-180z" />
<glyph unicode="n" horiz-adv-x="666" d="M86 0v1024h104l37 -53q54 73 158 73q105 0 150 -56.5t45 -180.5v-807h-181v807q0 82 -65 82q-68 0 -68 -82v-807h-180z" />
<glyph unicode="o" horiz-adv-x="649" d="M78 219v586q0 116 56 177.5t192 61.5q135 0 190 -61.5t55 -177.5v-586q0 -116 -54.5 -177.5t-190.5 -61.5q-138 0 -193 61t-55 178zM258 215q0 -80 68 -80q65 0 65 80v592q0 82 -65 82q-68 0 -68 -82v-592z" />
<glyph unicode="p" horiz-adv-x="662" d="M86 -328v1352h104l37 -53q45 73 154 73q105 0 152 -59.5t47 -179.5v-590q0 -124 -44.5 -179.5t-150.5 -55.5q-33 0 -66 14t-53 37v-359h-180zM266 215q0 -80 68 -80q65 0 65 82v590q0 82 -65 82q-68 0 -68 -82v-592z" />
<glyph unicode="q" horiz-adv-x="662" d="M82 215v590q0 124 46.5 181.5t152.5 57.5q110 0 153 -73l37 53h104v-1352h-180v359q-19 -23 -52.5 -37t-66.5 -14q-106 0 -150 56t-44 179zM262 217q0 -82 66 -82q67 0 67 80v592q0 82 -67 82q-66 0 -66 -82v-590z" />
<glyph unicode="r" horiz-adv-x="455" d="M86 0v1024h113l34 -51q32 43 72 63.5t109 20.5v-191q-13 2 -33 2q-115 0 -115 -135v-733h-180z" />
<glyph unicode="s" horiz-adv-x="621" d="M70 217v119h176v-121q0 -80 63 -80q33 0 49.5 18t16.5 62v72q0 43 -17 76t-43.5 56t-59 44.5t-65.5 47t-59.5 57.5t-43.5 83.5t-17 116.5v37q0 117 55 178t184 61q132 0 187 -61.5t55 -177.5v-92h-176v94q0 39 -17.5 60.5t-48.5 21.5q-63 0 -63 -80v-43q0 -42 17 -75 t43.5 -55t59 -43t65.5 -46t59.5 -56.5t43.5 -82t17 -115.5v-76q0 -117 -55 -177t-187 -60t-185.5 60t-53.5 177z" />
<glyph unicode="t" horiz-adv-x="512" d="M31 864v160h102v262l180 49v-311h148v-160h-148v-647q0 -43 16 -62.5t52 -19.5q37 0 80 17v-154q-43 -18 -90 -18q-136 0 -187 58.5t-51 178.5v647h-102z" />
<glyph unicode="u" horiz-adv-x="657" d="M82 217v807h180v-809q0 -80 68 -80q65 0 65 80v809h180v-1024h-102l-37 51q-42 -71 -155 -71q-106 0 -152.5 57t-46.5 180z" />
<glyph unicode="v" horiz-adv-x="600" d="M25 1024h186l88 -780l90 780h186l-176 -1024h-200z" />
<glyph unicode="w" horiz-adv-x="997" d="M45 1024h184l52 -543q3 -38 12.5 -132t13.5 -140h4q22 192 31 272l66 543h182l65 -541q18 -128 31 -274h4q3 47 27 272l51 543h184l-153 -1024h-215l-64 580q-8 73 -20 204h-4q-3 -32 -9.5 -104t-9.5 -100l-63 -580h-215z" />
<glyph unicode="x" horiz-adv-x="592" d="M10 0l189 516l-179 508h189l86 -346l86 346h190l-182 -508l193 -516h-191l-96 352l-96 -352h-189z" />
<glyph unicode="y" horiz-adv-x="600" d="M25 -176q42 -14 90 -14q35 0 56.5 22t29.5 74l14 94l-184 1024h186l86 -713l86 713h186l-196 -1122q-25 -138 -81.5 -194t-178.5 -56q-63 0 -94 14v158z" />
<glyph unicode="z" horiz-adv-x="543" d="M61 0v117l226 743h-219v164h411v-119l-223 -741h229v-164h-424z" />
<glyph unicode="{" horiz-adv-x="555" d="M92 557v135h72q48 0 69 19.5t21 58.5q0 78 -16 153t-36 125t-36 118t-16 134q0 103 64 149t196 46h53v-135h-51q-57 0 -80 -21t-23 -75q0 -77 37 -235.5t37 -248.5q0 -121 -76 -155q76 -42 76 -158q0 -90 -37 -248.5t-37 -234.5q0 -55 22.5 -75t80.5 -20h51v-135h-53 q-132 0 -196 46.5t-64 148.5q0 67 16 135t36 117t36 123.5t16 152.5q0 41 -21 60.5t-69 19.5h-72z" />
<glyph unicode="|" horiz-adv-x="426" d="M143 -246v1741h140v-1741h-140z" />
<glyph unicode="}" horiz-adv-x="555" d="M92 -111h53q58 0 79.5 20t21.5 75q0 76 -37 234.5t-37 248.5q0 116 76 158q-76 34 -76 155q0 90 37 248.5t37 235.5q0 55 -22 75.5t-79 20.5h-53v135h55q132 0 195.5 -46t63.5 -149q0 -66 -16.5 -134t-36 -118t-36 -125t-16.5 -153q0 -39 21.5 -58.5t70.5 -19.5h70v-135 h-70q-49 0 -70.5 -19.5t-21.5 -60.5q0 -78 16.5 -152.5t36 -123.5t36 -117t16.5 -135q0 -102 -64 -148.5t-195 -46.5h-55v135z" />
<glyph unicode="~" horiz-adv-x="616" d="M82 1274q0 96 29.5 138t101.5 42q36 0 64.5 -12.5t43.5 -27.5t35.5 -27.5t42.5 -12.5q43 0 43 60h93q0 -96 -28.5 -138.5t-100.5 -42.5q-36 0 -65 12t-44.5 27t-36.5 27t-43 12q-23 0 -32 -14t-9 -43h-94z" />
<glyph unicode="&#xa1;" horiz-adv-x="410" d="M92 -410l47 973h131l47 -973h-225zM113 817v207h184v-207h-184z" />
<glyph unicode="&#xa2;" horiz-adv-x="686" d="M102 383v688q0 103 42 163t145 73v188h112v-188q102 -13 142.5 -73t40.5 -163v-164h-172v166q0 82 -66 82q-67 0 -67 -82v-694q0 -80 67 -80q66 0 66 80v209h172v-205q0 -105 -40 -165t-143 -73v-206h-112v206q-105 13 -146 73t-41 165z" />
<glyph unicode="&#xa3;" horiz-adv-x="786" d="M82 672v104h90v424q0 121 59.5 187.5t204.5 66.5q135 0 196.5 -67.5t61.5 -186.5v-156h-186v156q0 82 -72 82q-74 0 -74 -82v-424h146v-104h-146v-412q0 -80 84 -80h248v-180h-252q-126 0 -180 74q-51 -74 -178 -74v180q88 0 88 80v412h-90z" />
<glyph unicode="&#xa5;" horiz-adv-x="723" d="M82 1434h201l77 -619l80 619h201l-184 -883h147v-100h-147v-113h147v-100h-147v-238h-191v238h-143v100h143v113h-143v100h143z" />
<glyph unicode="&#xa6;" horiz-adv-x="426" d="M143 -246v774h140v-774h-140zM143 721v774h140v-774h-140z" />
<glyph unicode="&#xa7;" horiz-adv-x="698" d="M92 41h191v-135q0 -40 13.5 -61t51.5 -21q68 0 68 82v78q0 63 -18 105.5t-46.5 64.5t-63 39.5t-69 41t-63 58t-46.5 100.5t-18 160v82q0 154 94 221q-94 90 -94 270v70q0 122 57 190t199 68t200 -68t58 -190v-131h-190v135q0 82 -68 82q-38 0 -51.5 -21.5t-13.5 -60.5 v-78q0 -64 18 -107t46.5 -65t62.5 -39t68.5 -40t63 -57.5t46.5 -101t18 -161.5v-82q0 -155 -94 -221q94 -90 94 -268v-70q0 -122 -57.5 -190t-200.5 -68q-142 0 -199 67.5t-57 190.5v131zM283 565q0 -161 92 -225q41 40 41 117v80q0 156 -94 223q-39 -36 -39 -115v-80z" />
<glyph unicode="&#xa8;" horiz-adv-x="571" d="M100 1126v187h142v-187h-142zM330 1126v187h141v-187h-141z" />
<glyph unicode="&#xa9;" horiz-adv-x="1092" d="M102 459v514q0 107 22 190.5t71.5 151t138.5 103.5t213 36t212 -36t137 -103.5t71 -151t22 -190.5v-514q0 -106 -21 -188t-69.5 -150t-137 -104.5t-214.5 -36.5q-102 0 -180 24.5t-127.5 67t-81 104.5t-44 130.5t-12.5 152.5zM227 459q0 -80 13.5 -140.5t47 -113.5 t99 -81t160.5 -28q76 0 133.5 19.5t92.5 51.5t56 80t29 98.5t8 113.5v514q0 63 -7.5 113.5t-29 98.5t-56 79.5t-92 51t-134.5 19.5q-95 0 -160.5 -28t-99 -80.5t-47 -113t-13.5 -140.5v-514zM365 465v502q0 91 40 138.5t144 47.5q101 0 141.5 -47t40.5 -137v-111h-129v117 q0 61 -53 61q-27 0 -39 -14t-12 -47v-518q0 -62 51 -62q53 0 53 64v137h129v-133q0 -90 -40.5 -137t-141.5 -47q-104 0 -144 47.5t-40 138.5z" />
<glyph unicode="&#xaa;" horiz-adv-x="582" d="M102 762v151q0 98 49.5 149t192.5 95v113q0 61 -51 61t-51 -61v-53h-133v55q0 88 42 135t142 47q104 0 145 -47t41 -137v-668h-88l-26 35q-34 -55 -107 -55q-84 0 -120 44.5t-36 135.5zM119 385v109h360v-109h-360zM238 784q0 -42 12 -63t43 -21q51 0 51 64v289 q-59 -23 -82.5 -55t-23.5 -85v-129z" />
<glyph unicode="&#xab;" horiz-adv-x="850" d="M82 512l217 379h170l-211 -379l211 -379h-170zM381 512l215 379h172l-211 -379l211 -379h-172z" />
<glyph unicode="&#xad;" horiz-adv-x="512" d="M82 506v135h348v-135h-348z" />
<glyph unicode="&#xae;" horiz-adv-x="1092" d="M102 459v514q0 107 22 190.5t71.5 151t138.5 103.5t213 36t212 -36t137 -103.5t71 -151t22 -190.5v-514q0 -106 -21 -188t-69.5 -150t-137 -104.5t-214.5 -36.5q-102 0 -180 24.5t-127.5 67t-81 104.5t-44 130.5t-12.5 152.5zM227 459q0 -80 13.5 -140.5t47 -113.5 t99 -81t160.5 -28q76 0 133.5 19.5t92.5 51.5t56 80t29 98.5t8 113.5v514q0 63 -7.5 113.5t-29 98.5t-56 79.5t-92 51t-134.5 19.5q-95 0 -160.5 -28t-99 -80.5t-47 -113t-13.5 -140.5v-514zM365 295v848h194q98 0 135 -45t37 -131v-164q0 -132 -92 -158l141 -350h-135 l-129 340h-20v-340h-131zM496 752h59q27 0 38 12t11 39v162q0 26 -10.5 38.5t-38.5 12.5h-59v-264z" />
<glyph unicode="&#xb0;" horiz-adv-x="524" d="M82 1233q0 108 39 164.5t141 56.5q103 0 141.5 -56.5t38.5 -164.5t-38.5 -164.5t-141.5 -56.5q-102 0 -141 56.5t-39 164.5zM197 1233q0 -57 13.5 -86t51.5 -29q39 0 53.5 29.5t14.5 85.5q0 54 -15 83.5t-53 29.5t-51.5 -29t-13.5 -84z" />
<glyph unicode="&#xb1;" horiz-adv-x="799" d="M102 143v136h594v-136h-594zM102 584v135h230v229h135v-229h229v-135h-229v-230h-135v230h-230z" />
<glyph unicode="&#xb4;" horiz-adv-x="410" d="M92 1126l43 246h162l-100 -246h-105z" />
<glyph unicode="&#xb5;" horiz-adv-x="688" d="M96 -328v1352h180v-809q0 -80 68 -80q66 0 66 82v807h180v-809q0 -123 -44 -179t-151 -56q-33 0 -66 14t-53 37v-359h-180z" />
<glyph unicode="&#xb6;" horiz-adv-x="786" d="M92 633v553q0 121 53.5 184.5t192.5 63.5h326v-1762h-191v717h-131q-140 0 -195 62t-55 182z" />
<glyph unicode="&#xb7;" horiz-adv-x="369" d="M92 469v207h184v-207h-184z" />
<glyph unicode="&#xb8;" horiz-adv-x="471" d="M90 -348l29 108h61q56 0 56 41q0 21 -13 30t-45 9h-35l43 160h95l-21 -78q119 -21 119 -131q0 -67 -40 -103t-140 -36h-109z" />
<glyph unicode="&#xba;" horiz-adv-x="575" d="M102 764v506q0 89 41.5 136.5t143.5 47.5q103 0 144.5 -47.5t41.5 -136.5v-506q0 -90 -41.5 -137t-144.5 -47q-102 0 -143.5 47t-41.5 137zM106 385v109h361v-109h-361zM236 764q0 -62 51 -62t51 62v506q0 61 -51 61t-51 -61v-506z" />
<glyph unicode="&#xbb;" horiz-adv-x="850" d="M82 133l211 379l-211 379h172l215 -379l-215 -379h-172zM381 133l211 379l-211 379h170l217 -379l-217 -379h-170z" />
<glyph unicode="&#xbf;" horiz-adv-x="676" d="M82 -45q0 71 9.5 121.5t25 81t34.5 55.5t39 52t37 61.5t30 95t17 141.5h129q9 -95 9 -135q0 -81 -14.5 -139t-35 -90t-41 -61t-35 -73t-14.5 -106v-133q0 -84 68 -84t68 84v143h186v-143q0 -124 -57 -190t-197 -66q-139 0 -198.5 67t-59.5 189v129zM248 817v207h184v-207 h-184z" />
<glyph unicode="&#xc0;" horiz-adv-x="659" d="M31 0l174 1434h250l174 -1434h-185l-28 291h-172l-29 -291h-184zM176 1761h162l43 -245h-105zM258 471h143l-30 317q-22 226 -39 439h-4q-6 -68 -13 -149.5t-15 -167t-11 -122.5z" />
<glyph unicode="&#xc1;" horiz-adv-x="659" d="M31 0l174 1434h250l174 -1434h-185l-28 291h-172l-29 -291h-184zM258 471h143l-30 317q-22 226 -39 439h-4q-6 -68 -13 -149.5t-15 -167t-11 -122.5zM272 1516l43 245h162l-100 -245h-105z" />
<glyph unicode="&#xc2;" horiz-adv-x="659" d="M31 0l174 1434h250l174 -1434h-185l-28 291h-172l-29 -291h-184zM147 1516l113 245h135l113 -245h-121l-59 118l-60 -118h-121zM258 471h143l-30 317q-22 226 -39 439h-4q-6 -68 -13 -149.5t-15 -167t-11 -122.5z" />
<glyph unicode="&#xc3;" horiz-adv-x="659" d="M31 0l174 1434h250l174 -1434h-185l-28 291h-172l-29 -291h-184zM98 1530q0 103 27 147.5t108 44.5q34 0 61.5 -11.5t42.5 -25t35 -25t42 -11.5q43 0 43 53h104q0 -101 -28.5 -147t-106.5 -46q-34 0 -61.5 11.5t-42.5 25.5t-35 25.5t-41 11.5q-43 0 -43 -53h-105z M258 471h143l-30 317q-22 226 -39 439h-4q-6 -68 -13 -149.5t-15 -167t-11 -122.5z" />
<glyph unicode="&#xc4;" horiz-adv-x="659" d="M31 0l174 1434h250l174 -1434h-185l-28 291h-172l-29 -291h-184zM143 1516v186h142v-186h-142zM258 471h143l-30 317q-22 226 -39 439h-4q-6 -68 -13 -149.5t-15 -167t-11 -122.5zM373 1516v186h141v-186h-141z" />
<glyph unicode="&#xc5;" horiz-adv-x="659" d="M31 0l174 1434h250l174 -1434h-185l-28 291h-172l-29 -291h-184zM182 1653q0 157 146 157q147 0 147 -157q0 -158 -147 -158q-146 0 -146 158zM258 471h143l-30 317q-22 226 -39 439h-4q-6 -68 -13 -149.5t-15 -167t-11 -122.5zM289 1653q0 -62 39 -62q41 0 41 62 q0 61 -41 61q-39 0 -39 -61z" />
<glyph unicode="&#xc6;" horiz-adv-x="954" d="M31 0l301 1434h551v-183h-242v-438h211v-176h-211v-457h242v-180h-432v291h-179l-53 -291h-188zM307 471h144v778h-2z" />
<glyph unicode="&#xc7;" horiz-adv-x="690" d="M88 236v960q0 123 60 190.5t206 67.5q142 0 200 -67.5t58 -190.5v-223h-184v223q0 86 -74 86q-75 0 -75 -86v-958q0 -88 75 -88q74 0 74 88v243h184v-245q0 -115 -51.5 -181t-175.5 -73l-14 -60q60 -11 89 -42.5t29 -88.5q0 -67 -40 -103t-140 -36h-108l28 108h62 q55 0 55 41q0 21 -12.5 30t-44.5 9h-35l39 144q-112 14 -158.5 79t-46.5 173z" />
<glyph unicode="&#xc8;" horiz-adv-x="610" d="M102 0v1434h437v-183h-246v-438h213v-176h-213v-457h246v-180h-437zM172 1761h162l43 -245h-105z" />
<glyph unicode="&#xc9;" horiz-adv-x="610" d="M102 0v1434h437v-183h-246v-438h213v-176h-213v-457h246v-180h-437zM264 1516l43 245h162l-100 -245h-105z" />
<glyph unicode="&#xca;" horiz-adv-x="610" d="M102 0v1434h437v-183h-246v-438h213v-176h-213v-457h246v-180h-437zM137 1516l113 245h135l113 -245h-121l-60 118l-59 -118h-121z" />
<glyph unicode="&#xcb;" horiz-adv-x="610" d="M102 0v1434h437v-183h-246v-438h213v-176h-213v-457h246v-180h-437zM133 1516v186h141v-186h-141zM362 1516v186h142v-186h-142z" />
<glyph unicode="&#xcc;" horiz-adv-x="395" d="M47 1761h162l43 -245h-105zM102 0v1434h191v-1434h-191z" />
<glyph unicode="&#xcd;" horiz-adv-x="395" d="M102 0v1434h191v-1434h-191zM139 1516l43 245h162l-100 -245h-105z" />
<glyph unicode="&#xce;" horiz-adv-x="395" d="M16 1516l113 245h135l113 -245h-121l-59 118l-60 -118h-121zM102 0v1434h191v-1434h-191z" />
<glyph unicode="&#xcf;" horiz-adv-x="395" d="M12 1516v186h142v-186h-142zM102 0v1434h191v-1434h-191zM242 1516v186h141v-186h-141z" />
<glyph unicode="&#xd0;" horiz-adv-x="723" d="M31 657v136h71v641h279q144 0 199 -63t55 -189v-930q0 -129 -53.5 -190.5t-196.5 -61.5h-283v657h-71zM293 180h84q37 0 52 17.5t15 52.5v930q0 37 -15.5 54t-53.5 17h-82v-458h76v-136h-76v-477z" />
<glyph unicode="&#xd1;" horiz-adv-x="803" d="M116 0v1434h187l227 -975h4q-20 287 -20 520v455h172v-1434h-187l-227 977h-4q20 -336 20 -524v-453h-172zM170 1530q0 103 27 147.5t108 44.5q34 0 61.5 -11.5t42 -25t35 -25t41.5 -11.5q43 0 43 53h105q0 -101 -29 -147t-106 -46q-35 0 -62.5 11.5t-42 25.5t-34.5 25.5 t-42 11.5q-43 0 -43 -53h-104z" />
<glyph unicode="&#xd2;" d="M92 236v960q0 121 60 189.5t206 68.5q145 0 204.5 -68t59.5 -190v-960q0 -122 -59 -189t-205 -67t-206 67.5t-60 188.5zM203 1761h162l43 -245h-105zM283 238q0 -88 75 -88q74 0 74 88v958q0 86 -74 86q-75 0 -75 -86v-958z" />
<glyph unicode="&#xd3;" d="M92 236v960q0 121 60 189.5t206 68.5q145 0 204.5 -68t59.5 -190v-960q0 -122 -59 -189t-205 -67t-206 67.5t-60 188.5zM283 238q0 -88 75 -88q74 0 74 88v958q0 86 -74 86q-75 0 -75 -86v-958zM299 1516l43 245h162l-101 -245h-104z" />
<glyph unicode="&#xd4;" d="M92 236v960q0 121 60 189.5t206 68.5q145 0 204.5 -68t59.5 -190v-960q0 -122 -59 -189t-205 -67t-206 67.5t-60 188.5zM176 1516l113 245h135l113 -245h-121l-60 118l-59 -118h-121zM283 238q0 -88 75 -88q74 0 74 88v958q0 86 -74 86q-75 0 -75 -86v-958z" />
<glyph unicode="&#xd5;" d="M92 236v960q0 121 60 189.5t206 68.5q145 0 204.5 -68t59.5 -190v-960q0 -122 -59 -189t-205 -67t-206 67.5t-60 188.5zM125 1530q0 103 27 147.5t108 44.5q34 0 61 -11.5t42 -25t35.5 -25t41.5 -11.5q43 0 43 53h105q0 -101 -29 -147t-106 -46q-35 0 -62.5 11.5 t-42 25.5t-34.5 25.5t-42 11.5q-43 0 -43 -53h-104zM283 238q0 -88 75 -88q74 0 74 88v958q0 86 -74 86q-75 0 -75 -86v-958z" />
<glyph unicode="&#xd6;" d="M92 236v960q0 121 60 189.5t206 68.5q145 0 204.5 -68t59.5 -190v-960q0 -122 -59 -189t-205 -67t-206 67.5t-60 188.5zM172 1516v186h141v-186h-141zM283 238q0 -88 75 -88q74 0 74 88v958q0 86 -74 86q-75 0 -75 -86v-958zM401 1516v186h142v-186h-142z" />
<glyph unicode="&#xd7;" horiz-adv-x="764" d="M102 383l189 190l-189 189l91 90l190 -188l188 188l91 -90l-189 -189l189 -190l-91 -90l-188 188l-190 -188z" />
<glyph unicode="&#xd8;" d="M92 236v960q0 121 60.5 189.5t205.5 68.5q34 0 82 -8l11 49h139l-25 -113q58 -63 58 -186v-960q0 -122 -59.5 -189t-205.5 -67q-36 0 -86 8l-10 -49h-139l22 114q-53 61 -53 183zM283 238q0 -88 75 -88q74 0 74 88v958q0 86 -74 86q-75 0 -75 -86v-958z" />
<glyph unicode="&#xd9;" d="M92 233v1201h191v-1198q0 -86 75 -86q40 0 57 21.5t17 64.5v1198h191v-1201q0 -253 -265 -253q-145 0 -205.5 66.5t-60.5 186.5zM203 1761h162l43 -245h-105z" />
<glyph unicode="&#xda;" d="M92 233v1201h191v-1198q0 -86 75 -86q40 0 57 21.5t17 64.5v1198h191v-1201q0 -253 -265 -253q-145 0 -205.5 66.5t-60.5 186.5zM307 1516l43 245h162l-100 -245h-105z" />
<glyph unicode="&#xdb;" d="M92 233v1201h191v-1198q0 -86 75 -86q40 0 57 21.5t17 64.5v1198h191v-1201q0 -253 -265 -253q-145 0 -205.5 66.5t-60.5 186.5zM176 1516l113 245h135l113 -245h-121l-60 118l-59 -118h-121z" />
<glyph unicode="&#xdc;" d="M92 233v1201h191v-1198q0 -86 75 -86q40 0 57 21.5t17 64.5v1198h191v-1201q0 -253 -265 -253q-145 0 -205.5 66.5t-60.5 186.5zM172 1516v186h141v-186h-141zM401 1516v186h142v-186h-142z" />
<glyph unicode="&#xde;" horiz-adv-x="713" d="M102 0v1434h191v-279h94q139 0 191.5 -62t52.5 -184v-372q0 -120 -58 -182t-190 -62h-90v-293h-191zM293 471h82q37 0 52 17.5t15 54.5v358q0 38 -16 55t-53 17h-80v-502z" />
<glyph unicode="&#xdf;" horiz-adv-x="686" d="M92 0v1227q0 119 55.5 183.5t194.5 64.5t194.5 -64.5t55.5 -183.5v-236q0 -69 -23.5 -108.5t-76.5 -63.5q58 -24 86 -65.5t28 -108.5v-414q0 -63 -10 -106t-36.5 -77.5t-75.5 -51t-124 -16.5q-14 0 -38 4v163q16 -4 34 -4q41 0 55.5 20t14.5 64v441q0 31 -20.5 50 t-55.5 19h-20v156h16q68 0 68 70v260q0 38 -18 62t-54 24t-53 -24t-17 -62v-1223h-180z" />
<glyph unicode="&#xe0;" horiz-adv-x="641" d="M66 219v148q0 110 70.5 175.5t242.5 125.5v141q0 80 -64 80q-61 0 -61 -82v-76h-174v80q0 111 54.5 172t180.5 61q132 0 188 -62t56 -173v-809h-104l-35 51q-24 -37 -58.5 -54t-91.5 -17q-106 0 -155 59t-49 180zM166 1372h161l43 -246h-104zM246 246q0 -25 1 -39 t6.5 -33.5t20 -29t37.5 -9.5q39 0 53.5 21t14.5 63v313q-75 -34 -104 -67.5t-29 -95.5v-123z" />
<glyph unicode="&#xe1;" horiz-adv-x="641" d="M66 219v148q0 110 70.5 175.5t242.5 125.5v141q0 80 -64 80q-61 0 -61 -82v-76h-174v80q0 111 54.5 172t180.5 61q132 0 188 -62t56 -173v-809h-104l-35 51q-24 -37 -58.5 -54t-91.5 -17q-106 0 -155 59t-49 180zM246 246q0 -25 1 -39t6.5 -33.5t20 -29t37.5 -9.5 q39 0 53.5 21t14.5 63v313q-75 -34 -104 -67.5t-29 -95.5v-123zM258 1126l43 246h162l-100 -246h-105z" />
<glyph unicode="&#xe2;" horiz-adv-x="641" d="M66 219v148q0 110 70.5 175.5t242.5 125.5v141q0 80 -64 80q-61 0 -61 -82v-76h-174v80q0 111 54.5 172t180.5 61q132 0 188 -62t56 -173v-809h-104l-35 51q-24 -37 -58.5 -54t-91.5 -17q-106 0 -155 59t-49 180zM137 1126l113 246h135l113 -246h-121l-60 119l-59 -119 h-121zM246 246q0 -25 1 -39t6.5 -33.5t20 -29t37.5 -9.5q39 0 53.5 21t14.5 63v313q-75 -34 -104 -67.5t-29 -95.5v-123z" />
<glyph unicode="&#xe3;" horiz-adv-x="641" d="M66 219v148q0 110 70.5 175.5t242.5 125.5v141q0 80 -64 80q-61 0 -61 -82v-76h-174v80q0 111 54.5 172t180.5 61q132 0 188 -62t56 -173v-809h-104l-35 51q-24 -37 -58.5 -54t-91.5 -17q-106 0 -155 59t-49 180zM92 1141q0 100 29.5 146t105.5 46q34 0 60.5 -12t40 -27 t33.5 -27t43 -12q45 0 45 58h98q0 -98 -31 -145.5t-104 -47.5q-35 0 -61.5 12t-39.5 27t-32.5 27t-42.5 12q-45 0 -45 -57h-99zM246 246q0 -25 1 -39t6.5 -33.5t20 -29t37.5 -9.5q39 0 53.5 21t14.5 63v313q-75 -34 -104 -67.5t-29 -95.5v-123z" />
<glyph unicode="&#xe4;" horiz-adv-x="641" d="M66 219v148q0 110 70.5 175.5t242.5 125.5v141q0 80 -64 80q-61 0 -61 -82v-76h-174v80q0 111 54.5 172t180.5 61q132 0 188 -62t56 -173v-809h-104l-35 51q-24 -37 -58.5 -54t-91.5 -17q-106 0 -155 59t-49 180zM133 1126v187h142v-187h-142zM246 246q0 -25 1 -39 t6.5 -33.5t20 -29t37.5 -9.5q39 0 53.5 21t14.5 63v313q-75 -34 -104 -67.5t-29 -95.5v-123zM363 1126v187h141v-187h-141z" />
<glyph unicode="&#xe5;" horiz-adv-x="641" d="M66 219v148q0 110 70.5 175.5t242.5 125.5v141q0 80 -64 80q-61 0 -61 -82v-76h-174v80q0 111 54.5 172t180.5 61q132 0 188 -62t56 -173v-809h-104l-35 51q-24 -37 -58.5 -54t-91.5 -17q-106 0 -155 59t-49 180zM170 1255q0 158 146 158q147 0 147 -158 q0 -157 -147 -157q-146 0 -146 157zM246 246q0 -25 1 -39t6.5 -33.5t20 -29t37.5 -9.5q39 0 53.5 21t14.5 63v313q-75 -34 -104 -67.5t-29 -95.5v-123zM277 1255q0 -61 39 -61q41 0 41 61q0 62 -41 62q-39 0 -39 -62z" />
<glyph unicode="&#xe6;" horiz-adv-x="958" d="M66 221v146q0 110 70.5 175.5t242.5 125.5v141q0 80 -66 80q-32 0 -45.5 -20t-13.5 -62v-76h-174v80q0 111 53.5 172t181.5 61q98 0 156 -45q51 45 160 45q133 0 186 -62t53 -179v-314h-307v-274q0 -80 68 -80q65 0 65 80v137h174v-131q0 -118 -52 -179.5t-187 -61.5 q-108 0 -162 45q-54 -45 -160 -45q-136 0 -189.5 62t-53.5 179zM246 246q0 -35 3 -55.5t18 -38t44 -17.5q37 0 52.5 20.5t15.5 63.5v313q-75 -34 -104 -67.5t-29 -95.5v-123zM563 625h133v182q0 82 -65 82q-68 0 -68 -82v-182z" />
<glyph unicode="&#xe7;" horiz-adv-x="649" d="M82 219v586q0 116 56 177.5t192 61.5q133 0 187 -61.5t54 -177.5v-123h-176v125q0 82 -65 82q-68 0 -68 -82v-592q0 -80 68 -80q65 0 65 80v147h176v-143q0 -108 -45 -168.5t-159 -68.5l-15 -60q119 -21 119 -131q0 -67 -40 -103t-140 -36h-109l29 108h61q56 0 56 41 q0 21 -13 30t-45 9h-34l36 144q-104 11 -147 71t-43 164z" />
<glyph unicode="&#xe8;" horiz-adv-x="651" d="M82 221v582q0 115 57.5 178t190.5 63q131 0 185 -62.5t54 -178.5v-314h-307v-274q0 -80 68 -80q65 0 65 80v137h174v-131q0 -117 -53 -179t-186 -62q-134 0 -191 63t-57 178zM179 1372h161l43 -246h-104zM262 625h133v182q0 82 -65 82q-68 0 -68 -82v-182z" />
<glyph unicode="&#xe9;" horiz-adv-x="651" d="M82 221v582q0 115 57.5 178t190.5 63q131 0 185 -62.5t54 -178.5v-314h-307v-274q0 -80 68 -80q65 0 65 80v137h174v-131q0 -117 -53 -179t-186 -62q-134 0 -191 63t-57 178zM262 625h133v182q0 82 -65 82q-68 0 -68 -82v-182zM264 1126l43 246h162l-100 -246h-105z" />
<glyph unicode="&#xea;" horiz-adv-x="651" d="M82 221v582q0 115 57.5 178t190.5 63q131 0 185 -62.5t54 -178.5v-314h-307v-274q0 -80 68 -80q65 0 65 80v137h174v-131q0 -117 -53 -179t-186 -62q-134 0 -191 63t-57 178zM145 1126l113 246h135l113 -246h-121l-60 119l-59 -119h-121zM262 625h133v182q0 82 -65 82 q-68 0 -68 -82v-182z" />
<glyph unicode="&#xeb;" horiz-adv-x="651" d="M82 221v582q0 115 57.5 178t190.5 63q131 0 185 -62.5t54 -178.5v-314h-307v-274q0 -80 68 -80q65 0 65 80v137h174v-131q0 -117 -53 -179t-186 -62q-134 0 -191 63t-57 178zM141 1126v187h142v-187h-142zM262 625h133v182q0 82 -65 82q-68 0 -68 -82v-182zM371 1126v187 h141v-187h-141z" />
<glyph unicode="&#xec;" horiz-adv-x="352" d="M21 1372h161l43 -246h-104zM86 0v1024h180v-1024h-180z" />
<glyph unicode="&#xed;" horiz-adv-x="352" d="M86 0v1024h180v-1024h-180zM127 1126l43 246h162l-100 -246h-105z" />
<glyph unicode="&#xee;" horiz-adv-x="352" d="M-4 1126l113 246h135l113 -246h-121l-60 119l-59 -119h-121zM86 0v1024h180v-1024h-180z" />
<glyph unicode="&#xef;" horiz-adv-x="352" d="M-9 1126v187h142v-187h-142zM86 0v1024h180v-1024h-180zM221 1126v187h141v-187h-141z" />
<glyph unicode="&#xf0;" horiz-adv-x="657" d="M82 233v572q0 239 199 239q57 0 112 -38q-9 102 -55 196l-109 -35l-39 111l89 29q-25 37 -111 147h203q43 -55 71 -94l113 37l41 -111l-94 -31q73 -155 73 -346v-676q0 -253 -247 -253q-132 0 -189 65.5t-57 187.5zM262 215q0 -80 66 -80q67 0 67 80v594q0 80 -67 80 q-66 0 -66 -82v-592z" />
<glyph unicode="&#xf1;" horiz-adv-x="666" d="M86 0v1024h104l37 -53q54 73 158 73q105 0 150 -56.5t45 -180.5v-807h-181v807q0 82 -65 82q-68 0 -68 -82v-807h-180zM104 1141q0 100 29.5 146t105.5 46q34 0 60.5 -12t40 -27t33.5 -27t43 -12q45 0 45 58h98q0 -98 -31 -145.5t-104 -47.5q-35 0 -61.5 12t-39.5 27 t-32.5 27t-42.5 12q-45 0 -45 -57h-99z" />
<glyph unicode="&#xf2;" horiz-adv-x="649" d="M78 219v586q0 116 56 177.5t192 61.5q135 0 190 -61.5t55 -177.5v-586q0 -116 -54.5 -177.5t-190.5 -61.5q-138 0 -193 61t-55 178zM179 1372h161l43 -246h-104zM258 215q0 -80 68 -80q65 0 65 80v592q0 82 -65 82q-68 0 -68 -82v-592z" />
<glyph unicode="&#xf3;" horiz-adv-x="649" d="M78 219v586q0 116 56 177.5t192 61.5q135 0 190 -61.5t55 -177.5v-586q0 -116 -54.5 -177.5t-190.5 -61.5q-138 0 -193 61t-55 178zM258 215q0 -80 68 -80q65 0 65 80v592q0 82 -65 82q-68 0 -68 -82v-592zM272 1126l43 246h162l-100 -246h-105z" />
<glyph unicode="&#xf4;" horiz-adv-x="649" d="M78 219v586q0 116 56 177.5t192 61.5q135 0 190 -61.5t55 -177.5v-586q0 -116 -54.5 -177.5t-190.5 -61.5q-138 0 -193 61t-55 178zM143 1126l113 246h135l113 -246h-121l-60 119l-59 -119h-121zM258 215q0 -80 68 -80q65 0 65 80v592q0 82 -65 82q-68 0 -68 -82v-592z " />
<glyph unicode="&#xf5;" horiz-adv-x="649" d="M78 219v586q0 116 56 177.5t192 61.5q135 0 190 -61.5t55 -177.5v-586q0 -116 -54.5 -177.5t-190.5 -61.5q-138 0 -193 61t-55 178zM96 1141q0 100 29.5 146t105.5 46q34 0 60.5 -12t40 -27t33.5 -27t43 -12q45 0 45 58h98q0 -98 -31 -145.5t-104 -47.5q-35 0 -61.5 12 t-39.5 27t-32.5 27t-42.5 12q-45 0 -45 -57h-99zM258 215q0 -80 68 -80q65 0 65 80v592q0 82 -65 82q-68 0 -68 -82v-592z" />
<glyph unicode="&#xf6;" horiz-adv-x="649" d="M78 219v586q0 116 56 177.5t192 61.5q135 0 190 -61.5t55 -177.5v-586q0 -116 -54.5 -177.5t-190.5 -61.5q-138 0 -193 61t-55 178zM139 1126v187h142v-187h-142zM258 215q0 -80 68 -80q65 0 65 80v592q0 82 -65 82q-68 0 -68 -82v-592zM369 1126v187h141v-187h-141z" />
<glyph unicode="&#xf7;" horiz-adv-x="799" d="M102 506v135h594v-135h-594zM313 219v193h172v-193h-172zM313 735v193h172v-193h-172z" />
<glyph unicode="&#xf8;" horiz-adv-x="649" d="M78 219v586q0 116 56 177.5t192 61.5q25 0 61 -4l12 45h150l-29 -108q51 -57 51 -172v-586q0 -116 -54.5 -177.5t-190.5 -61.5q-24 0 -66 4l-10 -45h-150l27 106q-49 57 -49 174zM258 215q0 -80 68 -80q65 0 65 80v592q0 82 -65 82q-68 0 -68 -82v-592z" />
<glyph unicode="&#xf9;" horiz-adv-x="657" d="M82 217v807h180v-809q0 -80 68 -80q65 0 65 80v809h180v-1024h-102l-37 51q-42 -71 -155 -71q-106 0 -152.5 57t-46.5 180zM174 1372h161l43 -246h-104z" />
<glyph unicode="&#xfa;" horiz-adv-x="657" d="M82 217v807h180v-809q0 -80 68 -80q65 0 65 80v809h180v-1024h-102l-37 51q-42 -71 -155 -71q-106 0 -152.5 57t-46.5 180zM274 1126l43 246h162l-100 -246h-105z" />
<glyph unicode="&#xfb;" horiz-adv-x="657" d="M82 217v807h180v-809q0 -80 68 -80q65 0 65 80v809h180v-1024h-102l-37 51q-42 -71 -155 -71q-106 0 -152.5 57t-46.5 180zM149 1126l113 246h135l113 -246h-121l-60 119l-59 -119h-121z" />
<glyph unicode="&#xfc;" horiz-adv-x="657" d="M82 217v807h180v-809q0 -80 68 -80q65 0 65 80v809h180v-1024h-102l-37 51q-42 -71 -155 -71q-106 0 -152.5 57t-46.5 180zM143 1126v187h142v-187h-142zM373 1126v187h141v-187h-141z" />
<glyph unicode="&#xfe;" horiz-adv-x="662" d="M86 -328v1782h180v-461q20 23 53 37t66 14q107 0 151 -56.5t44 -180.5v-592q0 -122 -46.5 -178.5t-148.5 -56.5q-33 0 -66 14t-53 37v-359h-180zM266 215q0 -80 68 -80q65 0 65 82v590q0 82 -65 82q-68 0 -68 -80v-594z" />
<glyph unicode="&#x2c6;" horiz-adv-x="555" d="M96 1126l113 246h135l113 -246h-121l-60 119l-59 -119h-121z" />
<glyph unicode="&#x2da;" horiz-adv-x="477" d="M92 1255q0 158 146 158q147 0 147 -158q0 -157 -147 -157q-146 0 -146 157zM199 1255q0 -61 39 -61q41 0 41 61q0 62 -41 62q-39 0 -39 -62z" />
<glyph unicode="&#x2dc;" horiz-adv-x="651" d="M98 1141q0 100 29.5 146t105.5 46q34 0 60.5 -12t40 -27t33.5 -27t43 -12q45 0 45 58h98q0 -98 -31 -145.5t-104 -47.5q-35 0 -61.5 12t-39.5 27t-32.5 27t-42.5 12q-45 0 -45 -57h-99z" />
<glyph unicode="&#x2000;" horiz-adv-x="905" />
<glyph unicode="&#x2001;" horiz-adv-x="1810" />
<glyph unicode="&#x2002;" horiz-adv-x="905" />
<glyph unicode="&#x2003;" horiz-adv-x="1810" />
<glyph unicode="&#x2004;" horiz-adv-x="603" />
<glyph unicode="&#x2005;" horiz-adv-x="452" />
<glyph unicode="&#x2006;" horiz-adv-x="301" />
<glyph unicode="&#x2007;" horiz-adv-x="301" />
<glyph unicode="&#x2008;" horiz-adv-x="226" />
<glyph unicode="&#x2009;" horiz-adv-x="362" />
<glyph unicode="&#x200a;" horiz-adv-x="100" />
<glyph unicode="&#x2010;" horiz-adv-x="512" d="M82 506v135h348v-135h-348z" />
<glyph unicode="&#x2011;" horiz-adv-x="512" d="M82 506v135h348v-135h-348z" />
<glyph unicode="&#x2012;" horiz-adv-x="512" d="M82 506v135h348v-135h-348z" />
<glyph unicode="&#x2013;" horiz-adv-x="717" d="M82 506v135h553v-135h-553z" />
<glyph unicode="&#x2014;" horiz-adv-x="1044" d="M82 526v95h881v-95h-881z" />
<glyph unicode="&#x2018;" horiz-adv-x="330" d="M72 1454h176v-461h-113z" />
<glyph unicode="&#x2019;" horiz-adv-x="330" d="M82 993v461h176l-63 -461h-113z" />
<glyph unicode="&#x201a;" horiz-adv-x="330" d="M82 -207v461h176l-63 -461h-113z" />
<glyph unicode="&#x201c;" horiz-adv-x="569" d="M72 1454h176v-461h-113zM311 1454h176v-461h-112z" />
<glyph unicode="&#x201d;" horiz-adv-x="569" d="M82 993v461h176l-63 -461h-113zM322 993v461h176l-64 -461h-112z" />
<glyph unicode="&#x201e;" horiz-adv-x="569" d="M82 -229v460h176l-63 -460h-113zM322 -229v460h176l-64 -460h-112z" />
<glyph unicode="&#x2020;" horiz-adv-x="489" d="M82 1178v86h117v190h92v-190h117v-86h-117v-465h-92v465h-117z" />
<glyph unicode="&#x2021;" horiz-adv-x="489" d="M82 901v88h117v189h-117v86h117v190h92v-190h117v-86h-117v-189h117v-88h-117v-188h-92v188h-117z" />
<glyph unicode="&#x2022;" horiz-adv-x="532" d="M92 580q0 72 51 123t123 51t123 -51t51 -123q0 -73 -51 -123.5t-123 -50.5t-123 50.5t-51 123.5z" />
<glyph unicode="&#x2026;" horiz-adv-x="981" d="M82 0v207h184v-207h-184zM399 0v207h185v-207h-185zM715 0v207h184v-207h-184z" />
<glyph unicode="&#x202f;" horiz-adv-x="362" />
<glyph unicode="&#x2039;" horiz-adv-x="551" d="M82 512l217 379h170l-211 -379l211 -379h-170z" />
<glyph unicode="&#x203a;" horiz-adv-x="551" d="M82 133l211 379l-211 379h172l215 -379l-215 -379h-172z" />
<glyph unicode="&#x205f;" horiz-adv-x="452" />
<glyph unicode="&#x20ac;" horiz-adv-x="807" d="M82 573v101h86v110h-86v101h86v311q0 123 59 190.5t205 67.5q142 0 202 -68t60 -190v-172h-186v172q0 37 -18.5 61.5t-57.5 24.5q-74 0 -74 -86v-311h189l-19 -101h-170v-110h152l-18 -101h-134v-335q0 -88 74 -88q42 0 59 21t17 67v192h186v-194q0 -121 -60 -188.5 t-202 -67.5q-146 0 -205 67t-59 189v337h-86z" />
<glyph unicode="&#x2122;" horiz-adv-x="678" d="M72 1384v50h190v-50h-69v-319h-52v319h-69zM301 1065v369h78l59 -275l60 275h77v-369h-47v301l-69 -301h-45l-66 301v-301h-47z" />
<glyph unicode="&#xe000;" horiz-adv-x="1025" d="M0 1025h1025v-1025h-1025v1025z" />
</font>
</defs>
</svg>
